<?xml version="1.0" standalone="no"?>
<!DOCTYPE svg PUBLIC "-//W3C//DTD SVG 20010904//EN"
 "http://www.w3.org/TR/2001/REC-SVG-20010904/DTD/svg10.dtd">
<svg version="1.0" xmlns="http://www.w3.org/2000/svg"
 width="84.000000pt" height="84.000000pt" viewBox="0 0 84.000000 84.000000"
 preserveAspectRatio="xMidYMid meet">
<metadata>
Created by potrace 1.11, written by Peter Selinger 2001-2013
</metadata>
<g transform="translate(0.000000,84.000000) scale(0.100000,-0.100000)"
fill="#000000" stroke="none">
<path d="M168 833 c-4 -22 -3 -39 2 -43 8 -6 66 -165 61 -165 -3 0 1 -9 7 -21
13 -24 24 -70 23 -97 0 -9 4 -15 10 -12 5 4 9 3 10 -2 2 -39 17 -138 19 -138
7 0 11 -63 14 -173 2 -104 0 -122 -14 -122 -12 0 -12 -2 -2 -9 8 -4 13 -11 13
-15 -3 -22 3 -25 34 -21 24 3 33 1 29 -6 -4 -8 -1 -8 13 0 14 7 24 7 33 -2 10
-9 11 -9 6 1 -4 7 -1 12 8 12 8 0 17 -6 19 -12 4 -10 6 -10 6 0 1 7 6 10 12 6
8 -5 10 1 7 20 -3 14 -2 29 2 31 4 2 7 27 6 55 -1 27 1 50 6 50 4 0 8 5 8 11
0 5 -4 8 -8 5 -4 -2 -8 17 -8 44 0 45 1 48 19 38 14 -7 17 -7 13 1 -4 6 -3 11
2 11 5 0 9 7 10 15 1 8 3 22 4 30 1 8 5 12 10 9 5 -4 8 0 7 7 -4 18 23 109 32
109 7 0 19 36 18 54 -1 5 4 12 9 15 5 3 18 22 28 41 38 68 71 113 127 172 35
37 34 49 -2 35 -17 -6 -28 -15 -25 -19 3 -4 -1 -8 -10 -8 -8 0 -35 -16 -60
-35 -26 -19 -48 -35 -51 -35 -10 0 -102 -99 -97 -104 3 -3 0 -6 -6 -6 -7 0
-12 -6 -12 -14 0 -8 -7 -17 -16 -20 -8 -3 -13 -10 -9 -15 3 -5 1 -12 -5 -16
-11 -7 -7 -66 6 -87 5 -7 10 -22 11 -33 2 -11 6 -27 10 -35 8 -21 11 -60 4
-60 -22 1 -40 40 -19 40 10 0 10 2 0 8 -7 5 -14 22 -16 39 -3 17 -9 41 -16 52
-6 12 -7 21 -3 21 4 0 2 4 -4 8 -7 4 -14 17 -16 27 -2 11 -11 35 -20 53 -10
17 -14 32 -10 32 5 0 3 4 -2 8 -6 4 -25 30 -43 58 -18 29 -43 63 -55 76 -12
13 -39 44 -59 67 -21 24 -38 41 -38 37 0 -4 -6 -1 -14 6 -8 7 -12 16 -9 21 2
4 2 7 -1 7 -3 0 -7 -3 -8 -7z"/>
<path d="M20 692 c0 -5 6 -14 13 -21 10 -11 9 -12 -3 -6 -10 6 -8 1 4 -13 11
-12 16 -22 11 -22 -4 0 -2 -6 4 -13 6 -8 8 -17 4 -20 -3 -4 -2 -7 3 -7 8 0 29
-55 38 -101 2 -8 6 -21 9 -29 11 -29 36 -145 39 -177 1 -18 7 -33 13 -33 5 0
3 -5 -5 -10 -13 -9 -13 -10 0 -10 13 0 13 -1 0 -10 -8 -5 -10 -10 -4 -10 12 0
10 -52 -2 -72 -4 -6 -3 -8 3 -5 6 4 10 -5 9 -22 -1 -16 -4 -27 -8 -25 -3 2 -6
-10 -5 -28 l2 -33 68 -1 c63 -1 73 3 68 30 -1 4 6 15 16 23 10 8 13 12 7 9 -7
-3 -14 5 -16 19 -3 14 -1 25 5 25 5 0 4 6 -2 14 -7 9 -8 17 -3 20 6 3 7 20 2
40 -4 19 -5 37 -2 40 2 3 -1 12 -8 21 -10 12 -10 15 0 15 10 0 10 3 0 15 -6 8
-9 19 -5 25 3 5 1 10 -6 10 -7 0 -10 3 -6 6 6 6 -32 115 -43 124 -3 3 -12 20
-19 38 -8 17 -18 32 -24 32 -6 0 -8 3 -4 6 6 6 -12 31 -64 85 -20 21 -34 41
-31 44 3 3 -2 5 -11 5 -9 0 -17 4 -17 9 0 5 -7 11 -15 15 -8 3 -15 2 -15 -2z"/>
<path d="M790 658 c0 -6 -3 -9 -6 -6 -13 13 -164 -179 -164 -209 0 -7 -4 -13
-10 -13 -5 0 -10 -9 -10 -20 0 -10 -6 -25 -13 -32 -8 -7 -12 -20 -9 -30 2 -10
0 -18 -5 -18 -8 0 -13 -25 -16 -72 -1 -10 -4 -18 -7 -18 -4 0 -6 -53 -6 -117
l1 -118 71 -3 c65 -3 72 -1 77 18 3 11 2 22 -3 25 -9 6 -8 215 2 215 4 0 5 9
3 20 -2 11 0 20 5 20 5 0 7 6 4 13 -2 7 1 33 9 57 7 25 12 52 12 60 0 8 3 17
7 20 4 3 9 15 11 25 1 11 6 25 9 31 4 6 9 24 12 40 3 16 10 30 15 32 6 2 7 10
4 18 -3 8 0 14 6 14 6 0 10 3 10 8 -4 24 2 42 13 36 7 -4 8 -3 4 4 -9 15 -26
15 -26 0z"/>
</g>
</svg>
